Patient4_TMGait_0pt8_01_right_35_EMG.mot
version=1
nRows=26
nColumns=33
inDegrees=no
endheader
time	1LAddLong	2LGlutMax	3LGlutMed	4LIliopsoas	5LSemiMemb	6LBicFemLong	7LRecFem	8LVastMed	9LVastLat	10LGasMed	11LTibAnt	12lTibPost	13LPeroneusLong	14LSol	15LExtDigLong	16LFlexDigLong	17RAddLong	18RGlutMax	19RGlutMed	20RIliopsoas	21RSemiMemb	22RBicFemLong	23RRecFem	24RVastMed	25RVastLat	26RGasMed	27RTibAnt	28RTibPost	29RPeroneusLong	30RSol	31RExtDigLong	32RFlexDigLong
40.383	0.002594	0.018463	-0.19363	-0.015106	0.028534	0.12604	0.04837	0.008392	-0.10284	0.19775	-0.19043	-0.03006	0.50339	-0.045471	-0.013275	-0.007935	-0.03418	0.043182	-0.55313	-0.057831	0.091705	-0.059967	-0.044403	0.06546	-0.002594	0.006714	-0.1091	-0.000305	0.19196	0.065155	-0.001068	0.018616
40.384	-0.000763	0.025635	-0.12299	-0.049744	0.011749	0.13245	0.094757	0.004883	-0.12451	0.078125	-0.1004	-0.004578	-0.018158	-0.063934	-0.10513	-0.00473	-0.023804	0.017853	-0.63324	0.10208	0.08194	-0.043488	-0.018005	0.054932	-0.002441	0.025177	-0.13763	0	0.098724	0.039368	-0.008545	0.027618
40.385	-0.007629	0.031586	0.06134	-0.041656	-0.004425	0.097656	0.11749	0.011139	-0.12024	0.12146	-0.025177	-0.022125	-0.15686	-0.16663	-0.098267	-0.014343	-0.009155	0.006714	-0.16281	0.20645	-0.022125	-0.025787	0.011139	0.002899	-0.003357	0.025177	-0.33814	-0.003204	0.075226	0.034943	-0.000916	0.023956
40.386	0.008698	0.018921	0.05661	-0.011902	0.004272	-0.036011	0.08194	0.005188	-0.084686	0.006866	0.042114	-0.019226	-0.10864	-0.24658	0.10986	0.004578	0.006104	0.019073	0.10941	0.10635	-0.056763	-0.04776	-0.000763	-0.011292	0.013885	0.03418	-0.19241	-0.001068	0.010986	0.069122	-0.005798	0.022583
40.387	0.009613	0.020294	-0.070801	0.026245	0.018463	-0.078735	0.038757	0.005798	-0.077362	-0.079803	0.045624	-0.021667	-0.24872	-0.14358	0.086975	-0.004425	-0.007019	-0.041656	0.019684	-0.00412	-0.099792	-0.038452	0.023956	0.006256	0.006866	0.045013	0.08194	-0.002441	-0.011292	0.090942	-0.00885	0.027008
40.388	0.006256	-0.005341	-0.15717	0.036621	0.021057	-0.002136	0.065765	0.004272	-0.10101	-0.050049	-0.08728	-0.022125	-0.12375	-0.031738	0.043945	-0.007629	0.002136	-0.006866	-0.18387	-0.06012	-0.2301	-0.026093	0.041504	0.013123	0.004425	0.050354	0.21515	-0.00473	0.10178	0.1181	-0.003967	0.030365
40.389	0.015869	-0.03067	-0.1561	0.005188	0.060577	0.046844	0.075684	0.021973	-0.1648	0.10407	-0.031891	-0.019531	-0.02594	-0.008545	0.002441	-0.021057	0.012817	-0.062561	-0.1535	-0.033264	-0.36087	-0.084534	0.039368	-0.015869	-0.010223	0.056763	0.42175	-0.005951	0.005798	0.10483	-0.002441	0.028381
40.39	0.01709	-0.058136	-0.13534	0.002899	0.033112	0.040436	0.099945	0.030518	-0.1944	0.11475	-0.034332	-0.041046	0.92407	0.13534	-0.093384	-0.007782	0.036926	-0.060425	-0.39154	-0.011292	-0.35324	-0.11047	0.056915	0.018921	0.005341	0.06073	0.43594	-0.006866	-0.13931	0.054016	-0.007782	0.031738
40.391	0.012054	-0.084381	-0.10834	0.009308	0.032501	0.03067	0.071564	0.025177	-0.15503	0.077972	-0.014496	-0.035858	0.16266	0.12528	-0.009155	-0.011139	0.051575	-0.052795	-0.73608	0.037384	0.059052	-0.054169	0.046234	-0.008698	-0.004272	0.053864	0.16434	-0.00061	-0.14908	0.002594	-0.003815	0.024567
40.392	0.028534	-0.083771	-0.07019	0.010681	0.02121	0.031128	-0.054932	0.018616	-0.2504	0.075989	0.016174	-0.011597	-0.39093	0.21347	0.067902	0.001831	-0.003052	-0.065155	-0.63065	0.001221	0.38437	0.017853	0.042267	-0.001068	0.007019	0.053253	-0.028992	0.00061	-0.097504	-0.021667	-0.001526	0.016632
40.393	0.03067	-0.10071	-0.12711	-0.010986	0.036774	0.013885	-0.2179	0.023956	-0.19547	0.061035	0.036926	-0.02533	0.41229	0.009003	0.14938	-0.001984	-0.041504	-0.019836	-0.28824	-0.13428	0.084229	0.11978	0.073547	-0.02121	0.002594	0.059662	0.112	-0.010681	-0.13412	-0.022736	-0.005798	0.012665
40.394	0.028687	-0.12329	-0.11185	-0.009003	0.016327	-0.041962	-0.16708	0.013885	-0.095215	0.074463	0.026703	-0.024261	0.071259	-0.10529	0.23529	-0.004272	-0.028076	-0.068207	-0.16373	-0.076752	0.015106	0.215	-0.019989	-0.028839	0.002899	0.067139	0.10376	-0.007782	0.15686	-0.089111	-0.003204	0.018616
40.395	0.023956	-0.11719	-0.099945	-0.014191	0.022736	-0.017242	-0.04364	-0.018005	-0.068054	0.070038	-0.04776	-0.021973	0.043335	-0.16785	0.068359	-0.005035	-0.005493	-0.023499	0.045319	0.011749	-0.0177	0.10559	-0.054321	-0.014496	0.025482	0.074921	0.11765	-0.008545	0.43213	-0.062256	-0.003204	0.022583
40.396	0.011902	-0.10391	-0.17899	0.00824	0.018463	0.06424	0.064697	-0.0383	-0.09491	0.096436	-0.069275	-0.028992	-0.63705	-0.027008	-0.040283	-0.000458	0.012817	-0.075836	-0.18082	0.22598	-0.025482	0.097504	-0.016327	-0.016022	0.009918	0.083618	0.50308	-0.005951	0.11292	-0.049438	-0.002441	0.01297
40.397	-0.006561	-0.14664	-0.18127	-0.005951	0.014343	0.18219	0.14206	-0.025482	-0.13321	0.12512	-0.054321	-0.015106	-0.48141	0.052185	-0.1004	0.002289	0.036469	-0.055542	-0.66025	0.38834	-0.029907	0.065002	0.017242	-0.011139	0.024872	0.086212	0.20325	0.001373	-0.17502	-0.12924	0.00061	0.014038
40.398	-0.003967	-0.13184	-0.15137	-0.021973	0.015106	0.20966	0.1416	-0.013275	-0.11566	0.07309	-0.018005	-0.024719	-0.12085	0.096283	-0.07431	0.003662	0.069733	-0.036316	-0.76035	0.19623	-0.041351	0.020447	0.002136	-0.079498	0.011292	0.091553	-0.22125	0.008087	-0.060272	-0.15701	-0.00412	0.008698
40.399	0.001678	-0.15884	-0.13596	-0.003052	0.016785	0.16632	0.086823	-0.020905	-0.081024	-0.13336	-0.000305	-0.017853	0.54596	0.18188	-0.14893	-0.009155	0.095673	-0.016632	-0.63919	0.025787	-0.020752	0.011139	0.018463	-0.14694	-0.011292	0.11307	-0.049438	-0.006104	0.003967	-0.093079	0.001831	0.008545
40.4	-0.014954	-0.15274	-0.11139	0.016479	0.012207	0.10651	0.13596	-0.023499	-0.087891	-0.1297	0.018005	-0.016937	0.11688	0.25864	-0.12787	-0.013123	0.11719	-0.068054	-0.32577	-0.007935	-0.10605	0.027466	0.02243	-0.17929	0.023651	0.11246	0.04425	-0.012054	-0.041504	-0.066681	-0.013275	0.014343
40.401	-0.00351	-0.16632	-0.20096	0.020142	-0.017548	-0.02121	0.12161	-0.017395	-0.094299	-0.070343	0.068512	-0.018921	-0.16663	0.27832	-0.030823	-0.008698	0.076294	-0.10056	-0.27725	0.08255	-0.001221	-0.040131	0.009766	-0.063477	0.02655	0.093994	0.42099	-0.00824	0.053711	0.010834	-0.003815	0.011902
40.402	-0.005188	-0.13351	-0.24262	0.02655	0.031891	-0.23743	0.07309	0.000305	-0.061035	-0.003052	0.075836	0.008545	-0.78919	0.079498	-0.014191	-0.023651	0.040436	-0.041046	-0.45868	0.072479	-0.05661	-0.057678	0.020294	0.03067	0.030823	0.095825	0.62057	0.005188	0.029144	0.059357	-0.002136	0.014648
40.403	-0.004272	-0.13382	-0.13596	0.020905	0.050354	-0.096436	0.071564	-0.010223	-0.042725	-0.018768	0.039978	-0.010223	-0.09903	-0.14893	0.029602	-0.013123	-0.033722	-0.056305	-0.39246	-0.004578	0.042572	0.083923	-0.036926	0.080872	0.02243	0.089417	0.5336	0.001526	-0.12878	0.075989	-0.002289	0.008087
40.404	-0.010071	-0.14206	-0.13809	0.012512	0.022278	-0.10773	0.091858	-0.005493	-0.085144	0.014343	0.02243	-0.013275	0.19852	-0.043182	0.21027	-0.020599	-0.040588	-0.040436	-0.33295	-0.048676	-0.14221	0.22492	-0.037537	0.061493	0.02594	0.08728	0.26947	0.000305	-0.10712	-0.014343	0.00412	0.008545
40.405	-0.00412	-0.15396	-0.27344	0.014191	0.004272	-0.085754	0.11444	0.001526	-0.089417	0.009308	0.034332	-0.01297	-0.11704	-0.037537	0.11292	-0.037994	0.015259	-0.057831	-0.38834	-0.039673	-0.1265	0.042114	0.018616	-0.014496	0.005493	0.097351	-0.10117	0.001678	0.075378	-0.078583	-0.00351	0.011292
40.406	0.005341	-0.13504	-0.34439	0.009308	0.019684	-0.074921	0.13779	0.000763	-0.082703	-0.010681	0.044861	-0.015106	-0.4042	0.045319	0.00412	0	0.053406	-0.0737	-0.51926	-0.065765	-0.055084	-0.10086	0.00885	-0.040741	0.004272	0.10056	-0.41168	-0.000763	-0.177	-0.121	0	0.013885
40.407	0.006714	-0.11078	-0.26367	-0.011444	0.040741	-0.13718	0.13809	-0.003967	-0.077362	-0.062561	0.056915	-0.016174	-0.17059	0.30807	0.13489	-0.006561	0.11032	-0.068665	-0.52917	-0.05127	-0.14694	-0.21423	-0.014801	-0.054016	0.005951	0.10834	-0.33478	0.005493	-0.04303	-0.1831	0.000458	0.011597
40.408	0.007172	-0.050354	0.046997	-0.033264	0.067596	-0.11597	0.17532	-0.014648	-0.06897	-0.10025	0.044098	-0.035248	-0.20004	0.25833	0.5397	0.000763	0.11154	0.014801	-0.5394	-0.065155	-0.16663	-0.27237	0.007935	-0.071259	-0.009766	0.10925	-0.092468	-0.00412	0.031281	-0.099792	0.00061	0.008698
